<svg xmlns="http://www.w3.org/2000/svg" viewBox="0 0 159.08 151.14"><defs><style>.cls-1{fill:#f7f7f7;}</style></defs><title>salesicon</title><g id="Layer_2" data-name="Layer 2"><g id="Layer_1-2" data-name="Layer 1"><path class="cls-1" d="M3.31,140.52H95.57a37.4,37.4,0,1,0,45.17-59V3.31A3.31,3.31,0,0,0,137.43,0H36l-.15,0-.17,0L35.5.1l-.16,0-.15.05L35,.25,34.9.31l-.15.07-.13.08-.14.09-.13.1-.13.09-.15.13L34,.95,1,33.36H1l-.16.17-.07.07-.18.24L.46,34l-.06.1-.08.17-.06.13L.2,34.6l-.05.15c0,.05,0,.11,0,.16s0,.1,0,.16,0,.21,0,.32,0,0,0,.07,0,.17,0,.26H0V137.21A3.31,3.31,0,0,0,3.31,140.52Zm3.31-6.62V39H38V90.13l8.73-6.06,6.7,6.06L60,83.81l10.22,6.31V39h30.91V82.45a37.35,37.35,0,0,0-11,51.46Zm99.29,6.28h0a30.81,30.81,0,0,1,1.85-53.94,30.8,30.8,0,1,1-1.85,53.94ZM121.66,76.3A37.21,37.21,0,0,0,107.76,79V37.08l26.36-26.69V78.44A37.24,37.24,0,0,0,121.66,76.3ZM103.07,32.41H74.17L99.46,6.62h29.08ZM37.65,6.62H67L40.78,32.41H11.4Z"/><path class="cls-1" d="M45.44,107.18H10.63a1.18,1.18,0,0,0-1.18,1.18v20a1.18,1.18,0,0,0,1.18,1.18H45.44a1.18,1.18,0,0,0,1.18-1.18v-20A1.18,1.18,0,0,0,45.44,107.18Zm-1.18,20H11.81V109.54H44.26Z"/><rect class="cls-1" x="13.78" y="111.62" width="1.86" height="13.62"/><rect class="cls-1" x="40.53" y="111.62" width="1.57" height="13.62"/><rect class="cls-1" x="16.98" y="111.62" width="1.86" height="13.62"/><rect class="cls-1" x="24.05" y="111.62" width="1.86" height="13.62"/><rect class="cls-1" x="30.63" y="111.62" width="1.57" height="13.62"/><rect class="cls-1" x="33.31" y="111.62" width="1.57" height="13.62"/><rect class="cls-1" x="27.14" y="111.62" width="2.6" height="13.62"/><rect class="cls-1" x="19.78" y="111.62" width="3" height="13.62"/><rect class="cls-1" x="36.18" y="111.62" width="3" height="13.62"/><path class="cls-1" d="M128.36,104.84l-10.83,11.32-3.33-4.52a3.31,3.31,0,0,0-5.33,3.93l5.66,7.69a3.31,3.31,0,0,0,2.45,1.34h.21a3.31,3.31,0,0,0,2.39-1l13.55-14.16a3.31,3.31,0,1,0-4.78-4.58Z"/></g></g></svg>