<svg xmlns="http://www.w3.org/2000/svg" viewBox="0 0 162.59 170.42"><defs><style>.cls-1{fill:#f7f7f7;}</style></defs><title>transfericon</title><g id="Layer_2" data-name="Layer 2"><g id="Layer_1-2" data-name="Layer 1"><path class="cls-1" d="M2.43,6.74,30,15.21,45.87,54.7A3.43,3.43,0,0,0,45.08,56L37.33,79.77a3.44,3.44,0,0,0,.09,2.37L59,135a27.23,27.23,0,1,0,52.32,1.19l49.19-21a3.45,3.45,0,1,0-2.7-6.34l-49.08,20.94a27.37,27.37,0,0,0-3.56-4.94l46.17-19.11a2.46,2.46,0,0,0,1.33-3.22L128.76,44.85a2.46,2.46,0,0,0-3.22-1.33l-4.87,2L103.79,4.73a2.46,2.46,0,0,0-3.22-1.33L56.67,21.57a2.46,2.46,0,0,0-1.33,3.22l16.89,40.8-5.65,2.34a2.46,2.46,0,0,0-1.33,3.22L83.8,116a27.13,27.13,0,0,0-5.56.82L35.8,11.12a3.45,3.45,0,0,0-2.19-2L4.46.15a3.45,3.45,0,0,0-2,6.59ZM60.83,25.17l12.16-5,4.69,11.34,15-6.23L88,13.92l12.16-5,15.91,38.44L76.73,63.61ZM85,122.85c.57,0,1.13,0,1.69.08a20.19,20.19,0,0,1,5.91,1.4l.56.23A20.32,20.32,0,1,1,85,122.85ZM70.73,71.53l17.11-7.08,6.63,16,20.21-8.36-6.63-16L125.15,49l22,53.19L101.1,121.26a27.09,27.09,0,0,0-11.85-5ZM63.13,127l-7.87-19.3,9.52-5.86,7,17.56A27.43,27.43,0,0,0,63.13,127ZM52.62,101.18,44.27,80.71l5.4-16.55L62.18,95.3Z"/><path class="cls-1" d="M85,155.1a11.72,11.72,0,0,0,11.72-11.72c0-.24,0-.47,0-.7a11.72,11.72,0,0,0-11.69-11c-.28,0-.56,0-.84,0A11.71,11.71,0,0,0,85,155.1Z"/></g></g></svg>